<svg
        width="470"
        height="80"
        viewBox="0 0 470 80"
        fill="none"
        xmlns="http://www.w3.org/2000/svg">
    <path
            d="M62.61 6H34.25C27.5533 6 21.1309 8.66026 16.3956 13.3956C11.6603 18.1308 9 24.5533 9 31.25C9 37.9467 11.6603 44.3692 16.3956 49.1044C21.1309 53.8397 27.5533 56.5 34.25 56.5H62.61C69.3067 56.5 75.7292 53.8397 80.4645 49.1044C85.1998 44.3692 87.86 37.9467 87.86 31.25C87.86 24.5533 85.1998 18.1308 80.4645 13.3956C75.7292 8.66026 69.3067 6 62.61 6ZM62.72 49.85C59.0413 49.85 55.4452 48.7591 52.3864 46.7153C49.3277 44.6715 46.9436 41.7666 45.5359 38.3679C44.1281 34.9692 43.7597 31.2294 44.4774 27.6213C45.1951 24.0133 46.9666 20.6991 49.5678 18.0978C52.1691 15.4966 55.4833 13.7251 59.0913 13.0074C62.6994 12.2897 66.4392 12.6581 69.8379 14.0658C73.2366 15.4736 76.1416 17.8576 78.1853 20.9164C80.2291 23.9752 81.32 27.5713 81.32 31.25C81.3213 33.6963 80.8398 36.1189 79.903 38.3787C78.9663 40.6386 77.5927 42.6913 75.861 44.4193C74.1293 46.1473 72.0736 47.5164 69.8118 48.4483C67.5499 49.3803 65.1263 49.8566 62.68 49.85H62.72Z"
            fill="white"
    />
    <path
            d="M107.68 19.19C110.301 17.69 113.281 16.9328 116.3 17C119.521 16.9625 122.691 17.8026 125.47 19.43C128.222 21.0538 130.463 23.4165 131.94 26.25C133.565 29.4035 134.376 32.9132 134.3 36.46C134.365 40.0217 133.555 43.5449 131.94 46.72C130.487 49.6106 128.249 52.0338 125.484 53.7121C122.718 55.3904 119.535 56.2561 116.3 56.21C113.305 56.2704 110.35 55.517 107.75 54.03C105.438 52.7228 103.494 50.8513 102.1 48.59V73.59H95.8V17.63H102.1V24.63C103.448 22.3567 105.373 20.4801 107.68 19.19ZM126.13 28.98C125.061 26.9524 123.438 25.2704 121.45 24.13C119.475 23.0226 117.244 22.4504 114.98 22.47C112.733 22.4554 110.523 23.0424 108.58 24.17C106.585 25.338 104.954 27.0381 103.87 29.08C102.7 31.4068 102.09 33.9753 102.09 36.58C102.09 39.1846 102.7 41.7531 103.87 44.08C104.954 46.1219 106.585 47.822 108.58 48.99C110.523 50.1176 112.733 50.7046 114.98 50.69C117.25 50.7098 119.483 50.1229 121.45 48.99C123.441 47.8265 125.063 46.1245 126.13 44.08C127.327 41.7361 127.922 39.1311 127.86 36.5C127.927 33.8875 127.332 31.3004 126.13 28.98Z"
            fill="white"
    />
    <path
            d="M174.31 38.95H143.99C143.99 40.5487 144.313 42.1311 144.937 43.6028C145.561 45.0745 146.476 46.4056 147.625 47.5168C148.775 48.628 150.136 49.4966 151.628 50.071C153.12 50.6453 154.712 50.9136 156.31 50.86C158.726 50.9452 161.109 50.2778 163.13 48.95C164.927 47.7135 166.274 45.9275 166.97 43.86H173.75C172.793 47.4337 170.644 50.5736 167.66 52.76C164.359 55.1244 160.368 56.3304 156.31 56.19C152.915 56.2412 149.567 55.3887 146.61 53.72C143.775 52.1081 141.458 49.7215 139.93 46.84C138.267 43.6478 137.435 40.0884 137.51 36.49C137.429 32.9087 138.236 29.363 139.86 26.17C141.354 23.3031 143.651 20.9334 146.47 19.35C149.474 17.7176 152.851 16.894 156.27 16.96C159.605 16.8946 162.899 17.7086 165.82 19.32C168.526 20.826 170.749 23.0697 172.23 25.79C173.758 28.652 174.532 31.856 174.48 35.1C174.491 36.3854 174.434 37.6705 174.31 38.95ZM166.42 27.63C165.383 25.9272 163.881 24.5567 162.09 23.68C160.203 22.7646 158.128 22.3023 156.03 22.33C153.036 22.2505 150.125 23.3245 147.9 25.33C145.574 27.5433 144.198 30.5724 144.06 33.78H168.01C168.06 31.6223 167.509 29.4931 166.42 27.63Z"
            fill="white"
    />
    <path
            d="M209.82 21.12C212.68 23.92 214.11 27.9466 214.11 33.2V55.56H207.88V34.1C207.88 30.32 206.94 27.42 205.05 25.42C204.041 24.4006 202.829 23.6063 201.491 23.0893C200.154 22.5722 198.722 22.3441 197.29 22.42C195.824 22.3494 194.36 22.5911 192.995 23.129C191.629 23.6669 190.394 24.4887 189.37 25.54C187.37 27.62 186.387 30.6433 186.42 34.61V55.61H180.12V17.63H186.42V23.03C187.671 21.0905 189.432 19.5335 191.51 18.53C193.721 17.4552 196.152 16.9108 198.61 16.94C200.663 16.852 202.713 17.1765 204.638 17.8945C206.564 18.6124 208.326 19.7092 209.82 21.12Z"
            fill="white"
    />
    <path
            d="M249.01 7.31V12.44H228.01V28.72H245.01V33.85H228.01V55.58H221.71V7.31H249.01Z"
            fill="white"
    />
    <path
            d="M288.33 38.95H258C258.003 40.5488 258.327 42.1307 258.953 43.6019C259.58 45.073 260.495 46.4034 261.645 47.5142C262.795 48.625 264.156 49.4935 265.648 50.0683C267.14 50.643 268.732 50.9122 270.33 50.86C272.746 50.9452 275.129 50.2778 277.15 48.95C278.947 47.7135 280.294 45.9275 280.99 43.86H287.77C286.813 47.4338 284.665 50.5736 281.68 52.76C278.378 55.123 274.388 56.3289 270.33 56.19C266.952 56.2463 263.619 55.4079 260.67 53.76C257.832 52.1512 255.514 49.7639 253.99 46.88C252.337 43.6858 251.518 40.1255 251.61 36.53C251.529 32.9487 252.336 29.403 253.96 26.21C255.452 23.3411 257.749 20.9706 260.57 19.39C263.574 17.7563 266.951 16.9327 270.37 17C273.705 16.9347 276.999 17.7486 279.92 19.36C282.624 20.8687 284.847 23.1117 286.33 25.83C287.85 28.6947 288.621 31.8974 288.57 35.14C288.556 36.4133 288.476 37.685 288.33 38.95ZM280.43 27.63C279.394 25.9402 277.894 24.5832 276.11 23.72C274.222 22.8057 272.147 22.3435 270.05 22.37C267.055 22.2895 264.145 23.3636 261.92 25.37C259.595 27.5848 258.216 30.6123 258.07 33.82H282.07C282.117 31.6434 281.549 29.4977 280.43 27.63Z"
            fill="white"
    />
    <path
            d="M294.14 26.25C295.617 23.4165 297.858 21.0538 300.61 19.43C303.392 17.8013 306.566 16.9612 309.79 17C312.814 16.9272 315.802 17.6699 318.44 19.15C320.723 20.4154 322.615 22.2833 323.91 24.55V17.63H330.28V55.56H323.91V48.5C322.579 50.8013 320.656 52.7039 318.34 54.01C315.716 55.5009 312.737 56.2541 309.72 56.19C306.512 56.2318 303.357 55.3762 300.61 53.72C297.861 52.0224 295.633 49.6005 294.17 46.72C292.561 43.5501 291.754 40.0341 291.82 36.48C291.728 32.9298 292.525 29.413 294.14 26.25ZM322.14 29.05C321.073 27.0166 319.455 25.3252 317.47 24.17C315.497 23.0683 313.275 22.4899 311.015 22.4899C308.755 22.4899 306.533 23.0683 304.56 24.17C302.586 25.3154 300.977 26.9971 299.92 29.02C298.719 31.3267 298.124 33.9004 298.19 36.5C298.124 39.1316 298.719 41.7377 299.92 44.08C300.975 46.1198 302.583 47.8214 304.56 48.99C306.511 50.1265 308.733 50.7139 310.99 50.69C313.263 50.7101 315.5 50.1232 317.47 48.99C319.46 47.8284 321.08 46.1258 322.14 44.08C323.332 41.7596 323.927 39.1783 323.87 36.57C323.95 33.9609 323.368 31.3741 322.18 29.05H322.14Z"
            fill="white"
    />
    <path
            d="M345.92 22.82V45.18C345.85 45.8773 345.918 46.5816 346.121 47.2525C346.323 47.9234 346.656 48.5478 347.1 49.09C347.88 49.85 349.25 50.23 351.19 50.23H355.82V55.56H350.15C346.64 55.56 344.01 54.76 342.25 53.14C340.49 51.52 339.62 48.87 339.62 45.14V22.82H334.71V17.63H339.61V8.07001H345.91V17.63H355.81V22.82H345.92Z"
            fill="white"
    />
    <path
            d="M394.38 17.63V55.56H388.08V49.96C386.873 51.9104 385.14 53.4805 383.08 54.49C380.879 55.5867 378.449 56.1453 375.99 56.12C373.213 56.1739 370.465 55.5419 367.99 54.28C365.618 53.0506 363.674 51.1335 362.41 48.78C360.991 46.0232 360.303 42.9487 360.41 39.85V17.63H366.61V39.02C366.61 42.76 367.557 45.6333 369.45 47.64C370.456 48.6596 371.667 49.4542 373.003 49.9713C374.339 50.4884 375.77 50.7164 377.2 50.64C378.679 50.7214 380.158 50.4851 381.538 49.9469C382.918 49.4088 384.167 48.5812 385.2 47.52C387.13 45.45 388.1 42.42 388.1 38.45V17.63H394.38Z"
            fill="white"
    />
    <path
            d="M413.39 18.72C415.685 17.4535 418.28 16.8316 420.9 16.92V23.42H419.24C412.167 23.42 408.633 27.25 408.64 34.91V55.54H402.34V17.63H408.61V23.79C409.67 21.6665 411.333 19.9028 413.39 18.72Z"
            fill="white"
    />
    <path
            d="M459.87 38.95H429.55C429.55 40.5487 429.872 42.1311 430.497 43.6028C431.121 45.0745 432.036 46.4056 433.185 47.5168C434.335 48.628 435.696 49.4966 437.188 50.071C438.68 50.6453 440.272 50.9136 441.87 50.86C444.287 50.9478 446.671 50.2802 448.69 48.95C450.491 47.7178 451.84 45.9302 452.53 43.86H459.32C458.356 47.4304 456.209 50.568 453.23 52.76C449.925 55.1244 445.931 56.3303 441.87 56.19C438.495 56.2479 435.165 55.4093 432.22 53.76C429.382 52.1512 427.064 49.7638 425.54 46.88C423.869 43.6904 423.033 40.1298 423.11 36.53C423.032 32.9478 423.843 29.4021 425.47 26.21C426.958 23.3387 429.257 20.9673 432.08 19.39C435.081 17.7576 438.455 16.9339 441.87 17C445.208 16.9357 448.505 17.7495 451.43 19.36C454.134 20.8662 456.353 23.1101 457.83 25.83C459.358 28.692 460.132 31.896 460.08 35.14C460.076 36.4128 460.006 37.6845 459.87 38.95ZM451.98 27.63C450.932 25.9319 449.414 24.5738 447.61 23.72C445.741 22.8133 443.687 22.3513 441.61 22.37C438.612 22.2889 435.698 23.3629 433.47 25.37C431.144 27.5833 429.768 30.6124 429.63 33.82H453.63C453.669 31.643 453.098 29.4986 451.98 27.63Z"
            fill="white"
    />
</svg>