<?xml version="1.0" encoding="utf-8"?>
<svg xmlns="http://www.w3.org/2000/svg" viewBox="14 92 700 299.0216" width="700px" height="299.022px" preserveAspectRatio="none"><g id="object-11" transform="matrix(2.5642669200897212, 0, 0, 2.5642669200897212, -21.89974021911621, -143.91256713867188)"><path d="M67.61 92H39.25C32.5533 92 26.1309 94.6603 21.3956 99.3956C16.6603 104.131 14 110.553 14 117.25C14 123.947 16.6603 130.369 21.3956 135.104C26.1309 139.84 32.5533 142.5 39.25 142.5H67.61C74.3067 142.5 80.7292 139.84 85.4645 135.104C90.1998 130.369 92.86 123.947 92.86 117.25C92.86 110.553 90.1998 104.131 85.4645 99.3956C80.7292 94.6603 74.3067 92 67.61 92ZM67.72 135.85C64.0413 135.85 60.4452 134.759 57.3864 132.715C54.3277 130.672 51.9436 127.767 50.5359 124.368C49.1281 120.969 48.7597 117.229 49.4774 113.621C50.1951 110.013 51.9666 106.699 54.5678 104.098C57.1691 101.497 60.4833 99.7251 64.0913 99.0074C67.6994 98.2897 71.4392 98.6581 74.8379 100.066C78.2366 101.474 81.1416 103.858 83.1853 106.916C85.2291 109.975 86.32 113.571 86.32 117.25C86.3213 119.696 85.8398 122.119 84.903 124.379C83.9663 126.639 82.5927 128.691 80.861 130.419C79.1293 132.147 77.0736 133.516 74.8118 134.448C72.5499 135.38 70.1263 135.857 67.68 135.85H67.72Z" style="fill: rgb(135, 168, 167);" id="object-0"/><path d="M112.68 105.19C115.301 103.69 118.281 102.933 121.3 103C124.521 102.962 127.691 103.803 130.47 105.43C133.222 107.054 135.463 109.416 136.94 112.25C138.565 115.403 139.376 118.913 139.3 122.46C139.365 126.022 138.555 129.545 136.94 132.72C135.487 135.611 133.249 138.034 130.484 139.712C127.718 141.39 124.535 142.256 121.3 142.21C118.305 142.27 115.35 141.517 112.75 140.03C110.438 138.723 108.494 136.851 107.1 134.59V159.59H100.8V103.63H107.1V110.63C108.448 108.357 110.373 106.48 112.68 105.19ZM131.13 114.98C130.061 112.952 128.438 111.27 126.45 110.13C124.475 109.023 122.244 108.45 119.98 108.47C117.733 108.455 115.523 109.042 113.58 110.17C111.585 111.338 109.954 113.038 108.87 115.08C107.7 117.407 107.09 119.975 107.09 122.58C107.09 125.185 107.7 127.753 108.87 130.08C109.954 132.122 111.585 133.822 113.58 134.99C115.523 136.118 117.733 136.705 119.98 136.69C122.25 136.71 124.483 136.123 126.45 134.99C128.441 133.826 130.063 132.124 131.13 130.08C132.327 127.736 132.922 125.131 132.86 122.5C132.927 119.887 132.332 117.3 131.13 114.98Z" style="fill: rgb(135, 168, 167);" id="object-1"/><path d="M179.31 124.95H148.99C148.99 126.549 149.313 128.131 149.937 129.603C150.561 131.074 151.476 132.406 152.625 133.517C153.775 134.628 155.136 135.497 156.628 136.071C158.12 136.645 159.712 136.914 161.31 136.86C163.726 136.945 166.109 136.278 168.13 134.95C169.927 133.713 171.274 131.927 171.97 129.86H178.75C177.793 133.434 175.644 136.574 172.66 138.76C169.359 141.124 165.368 142.33 161.31 142.19C157.915 142.241 154.567 141.389 151.61 139.72C148.775 138.108 146.458 135.721 144.93 132.84C143.267 129.648 142.435 126.088 142.51 122.49C142.429 118.909 143.236 115.363 144.86 112.17C146.354 109.303 148.651 106.933 151.47 105.35C154.474 103.718 157.851 102.894 161.27 102.96C164.605 102.895 167.899 103.709 170.82 105.32C173.526 106.826 175.749 109.07 177.23 111.79C178.758 114.652 179.532 117.856 179.48 121.1C179.491 122.385 179.434 123.67 179.31 124.95ZM171.42 113.63C170.383 111.927 168.881 110.557 167.09 109.68C165.203 108.765 163.128 108.302 161.03 108.33C158.036 108.25 155.125 109.324 152.9 111.33C150.574 113.543 149.198 116.572 149.06 119.78H173.01C173.06 117.622 172.509 115.493 171.42 113.63Z" style="fill: rgb(135, 168, 167);" id="object-2"/><path d="M214.82 107.12C217.68 109.92 219.11 113.947 219.11 119.2V141.56H212.88V120.1C212.88 116.32 211.94 113.42 210.05 111.42C209.041 110.401 207.829 109.606 206.491 109.089C205.154 108.572 203.722 108.344 202.29 108.42C200.824 108.349 199.36 108.591 197.995 109.129C196.629 109.667 195.394 110.489 194.37 111.54C192.37 113.62 191.387 116.643 191.42 120.61V141.61H185.12V103.63H191.42V109.03C192.671 107.091 194.432 105.534 196.51 104.53C198.721 103.455 201.152 102.911 203.61 102.94C205.663 102.852 207.713 103.177 209.638 103.895C211.564 104.612 213.326 105.709 214.82 107.12Z" style="fill: rgb(135, 168, 167);" id="object-3"/><path d="M75.91 159.72V164.85H54.91V181.13H71.91V186.26H54.91V207.99H48.61V159.72H75.91Z" style="fill: rgb(135, 168, 167);" id="object-4"/><path d="M115.23 191.36H84.9C84.903 192.959 85.227 194.541 85.853 196.012C86.48 197.483 87.395 198.813 88.545 199.924C89.695 201.035 91.056 201.904 92.548 202.478C94.04 203.053 95.632 203.322 97.23 203.27C99.646 203.355 102.029 202.688 104.05 201.36C105.847 200.124 107.194 198.338 107.89 196.27H114.67C113.713 199.844 111.565 202.984 108.58 205.17C105.278 207.533 101.288 208.739 97.23 208.6C93.852 208.656 90.519 207.818 87.57 206.17C84.732 204.561 82.414 202.174 80.89 199.29C79.237 196.096 78.418 192.536 78.51 188.94C78.429 185.359 79.236 181.813 80.86 178.62C82.352 175.751 84.649 173.381 87.47 171.8C90.474 170.166 93.851 169.343 97.27 169.41C100.605 169.345 103.899 170.159 106.82 171.77C109.524 173.279 111.747 175.522 113.23 178.24C114.75 181.105 115.521 184.307 115.47 187.55C115.456 188.823 115.376 190.095 115.23 191.36ZM107.33 180.04C106.294 178.35 104.794 176.993 103.01 176.13C101.122 175.216 99.047 174.754 96.95 174.78C93.955 174.7 91.045 175.774 88.82 177.78C86.495 179.995 85.116 183.022 84.97 186.23H108.97C109.017 184.053 108.449 181.908 107.33 180.04Z" style="fill: rgb(135, 168, 167);" id="object-5"/><path d="M121.04 178.66C122.517 175.827 124.758 173.464 127.51 171.84C130.292 170.211 133.466 169.371 136.69 169.41C139.714 169.337 142.702 170.08 145.34 171.56C147.623 172.825 149.515 174.693 150.81 176.96V170.04H157.18V207.97H150.81V200.91C149.479 203.211 147.556 205.114 145.24 206.42C142.616 207.911 139.637 208.664 136.62 208.6C133.412 208.642 130.257 207.786 127.51 206.13C124.761 204.432 122.533 202.011 121.07 199.13C119.461 195.96 118.654 192.444 118.72 188.89C118.628 185.34 119.425 181.823 121.04 178.66ZM149.04 181.46C147.973 179.427 146.355 177.735 144.37 176.58C142.397 175.478 140.175 174.9 137.915 174.9C135.655 174.9 133.433 175.478 131.46 176.58C129.486 177.725 127.877 179.407 126.82 181.43C125.619 183.737 125.024 186.31 125.09 188.91C125.024 191.542 125.619 194.148 126.82 196.49C127.875 198.53 129.483 200.231 131.46 201.4C133.411 202.537 135.633 203.124 137.89 203.1C140.163 203.12 142.4 202.533 144.37 201.4C146.36 200.238 147.98 198.536 149.04 196.49C150.232 194.17 150.827 191.588 150.77 188.98C150.85 186.371 150.268 183.784 149.08 181.46H149.04Z" style="fill: rgb(135, 168, 167);" id="object-6"/><path d="M172.82 175.23V197.59C172.75 198.287 172.818 198.992 173.021 199.662C173.223 200.333 173.556 200.958 174 201.5C174.78 202.26 176.15 202.64 178.09 202.64H182.72V207.97H177.05C173.54 207.97 170.91 207.17 169.15 205.55C167.39 203.93 166.52 201.28 166.52 197.55V175.23H161.61V170.04H166.51V160.48H172.81V170.04H182.71V175.23H172.82Z" style="fill: rgb(135, 168, 167);" id="object-7"/><path d="M221.28 170.04V207.97H214.98V202.37C213.773 204.32 212.04 205.891 209.98 206.9C207.779 207.997 205.349 208.555 202.89 208.53C200.113 208.584 197.365 207.952 194.89 206.69C192.518 205.461 190.574 203.544 189.31 201.19C187.891 198.433 187.203 195.359 187.31 192.26V170.04H193.51V191.43C193.51 195.17 194.457 198.043 196.35 200.05C197.356 201.07 198.567 201.864 199.903 202.381C201.239 202.898 202.67 203.126 204.1 203.05C205.579 203.131 207.058 202.895 208.438 202.357C209.818 201.819 211.067 200.991 212.1 199.93C214.03 197.86 215 194.83 215 190.86V170.04H221.28Z" style="fill: rgb(135, 168, 167);" id="object-8"/><path d="M240.29 171.13C242.585 169.864 245.18 169.242 247.8 169.33V175.83H246.14C239.067 175.83 235.533 179.66 235.54 187.32V207.95H229.24V170.04H235.51V176.2C236.57 174.077 238.233 172.313 240.29 171.13Z" style="fill: rgb(135, 168, 167);" id="object-9"/><path d="M286.77 191.36H256.45C256.45 192.959 256.772 194.541 257.397 196.013C258.021 197.484 258.936 198.816 260.085 199.927C261.235 201.038 262.596 201.907 264.088 202.481C265.58 203.055 267.172 203.324 268.77 203.27C271.187 203.358 273.571 202.69 275.59 201.36C277.391 200.128 278.74 198.34 279.43 196.27H286.22C285.256 199.84 283.109 202.978 280.13 205.17C276.825 207.534 272.831 208.74 268.77 208.6C265.395 208.658 262.065 207.819 259.12 206.17C256.282 204.561 253.964 202.174 252.44 199.29C250.769 196.1 249.933 192.54 250.01 188.94C249.932 185.358 250.743 181.812 252.37 178.62C253.858 175.749 256.157 173.377 258.98 171.8C261.981 170.168 265.355 169.344 268.77 169.41C272.108 169.346 275.405 170.159 278.33 171.77C281.034 173.276 283.253 175.52 284.73 178.24C286.258 181.102 287.032 184.306 286.98 187.55C286.976 188.823 286.906 190.094 286.77 191.36ZM278.88 180.04C277.832 178.342 276.314 176.984 274.51 176.13C272.641 175.223 270.587 174.761 268.51 174.78C265.512 174.699 262.598 175.773 260.37 177.78C258.044 179.993 256.668 183.022 256.53 186.23H280.53C280.569 184.053 279.998 181.909 278.88 180.04Z" style="fill: rgb(135, 168, 167);" id="object-10"/></g></svg>